<svg width="1426" height="981" viewBox="0 0 1426 981" fill="none" xmlns="http://www.w3.org/2000/svg">
<path d="M825.573 435.686C826.526 437.179 827.478 438.673 828.726 440.724C833.279 449.207 834.066 457.715 833.128 466.812C833.011 467.587 833.015 468.041 832.788 468.777C830.102 473.881 827.645 478.704 825.188 483.526C815.379 493.02 803.656 496.855 790.505 493.288C784.715 491.718 779.618 487.596 774.287 484.676C774.287 494.267 774.287 504.93 774.287 515.934C770.775 515.934 767.707 515.934 763.706 515.934C763.706 508.862 763.706 501.642 763.705 493.52C763.54 482.578 763.377 472.538 763.331 462.091C763.362 460.288 763.275 458.891 763.305 457.039C763.334 450.22 763.246 443.856 763.157 437.493C763.157 433.382 763.157 429.27 763.157 424.857C766.902 424.857 769.998 424.857 773.665 424.857C773.665 428.552 773.665 432.397 773.665 437.708C780.794 428.076 789.119 423.472 800.48 423.569C804.123 423.898 807.056 424.215 810.131 424.859C811.157 425.52 812.038 425.853 813.181 426.364C814.645 426.894 815.847 427.246 817.165 427.931C818.846 429.442 820.41 430.619 822.094 432.073C823.333 433.462 824.453 434.574 825.573 435.686ZM822.693 458.063C822.529 456.743 822.402 455.418 822.196 454.105C820.462 443.002 812.88 435.005 802.372 433.172C791.716 431.314 782.223 436.18 776.778 446.293C768.227 462.17 777.203 483.222 793.438 485.364C809.458 487.478 821.673 476.477 822.693 458.063Z" fill="#F5F5F6"/>
<path d="M410.511 477.333C405.44 466.563 404.274 455.78 408.725 444.788C414.495 430.539 426.857 423.045 443.945 423.924C454.766 425.457 461.915 431.064 467.146 439.82C467.781 441.27 468.393 442.394 469.006 443.517C469.987 449.693 470.967 455.87 471.474 462.512C468.029 463.115 465.057 463.251 461.637 463.282C457.821 463.268 454.453 463.358 450.629 463.342C445.477 463.308 440.781 463.381 435.628 463.347C429.475 463.324 423.78 463.407 417.703 463.451C417.142 463.782 416.963 464.153 416.798 464.912C418.976 473.837 423.331 480.584 432.248 484.099C439.159 486.254 445.724 486.54 452.56 483.74C454.974 482.613 457.029 481.521 459.405 480.363C460.996 479.391 462.267 478.486 463.747 477.431C465.589 479.569 467.255 481.502 468.921 483.435C468.581 483.531 468.357 483.748 467.864 484.44C461.008 491.338 452.798 493.954 443.98 495.199C442.644 495.121 441.307 495.044 439.229 494.903C431.608 494.11 424.957 492.696 419.677 487.786C417.142 485.429 414.81 482.852 412.387 480.375C411.853 479.422 411.32 478.468 410.511 477.333ZM453.822 438.221C446.414 432.035 438.227 430.964 429.642 435.17C421.574 439.123 417.701 446.085 416.36 455.102C431.682 455.102 446.405 455.102 461.506 455.102C460.761 448.65 458.662 443.217 453.822 438.221Z" fill="#F5F5F6"/>
<path d="M672.02 457.041C673.057 448.804 675.548 441.002 681.27 434.904C700.246 414.68 734.856 422.955 742.828 449.629C743.489 453.712 743.933 457.1 744.279 460.903C744.061 463.011 743.94 464.706 743.595 466.687C740.593 472.474 737.817 477.974 735.041 483.475C731.538 485.973 728.036 488.47 724.011 491.224C723.007 491.781 722.526 492.081 722.045 492.381C718.981 493.073 715.916 493.766 712.122 494.51C710.229 494.647 709.065 494.732 707.901 494.817C707.461 494.748 707.021 494.679 705.903 494.582C700.185 493.185 695.144 491.815 690.103 490.445C688.703 489.366 687.302 488.287 685.418 486.804C682.125 483.234 678.997 480.293 676.577 476.854C672.426 470.956 672.099 463.982 672.02 457.041ZM732.87 455.555C732.361 453.458 732.04 451.294 731.311 449.276C726.7 436.504 713.55 430.037 700.635 434.106C687.543 438.231 680.284 452.856 684.162 467.297C687.602 480.105 700.384 487.785 713.602 484.985C726.329 482.289 733.48 471.733 732.87 455.555Z" fill="#F8F8F8"/>
<path d="M932.082 493.699C932.058 487.933 932.034 482.167 931.924 475.939C931.838 458.74 931.838 442.003 931.838 425.028C935.423 425.028 938.507 425.028 941.926 425.028C941.926 429.71 941.926 434.292 941.926 440.392C948.791 430.584 956.652 424.395 968.331 423.597C968.331 427.091 968.331 430.365 968.215 434.092C955.163 434.66 945.262 444.03 942.464 459.483C942.35 468.35 942.362 476.425 942.374 484.5C942.307 486.216 942.24 487.931 942.179 490.32C942.241 491.161 942.296 491.329 942.351 491.498C940.876 492.247 939.401 492.996 937.104 493.741C934.882 493.724 933.482 493.711 932.082 493.699Z" fill="#F8F8F8"/>
<path d="M217.088 237.271C220.883 237.646 224.733 237.736 228.464 238.447C240.071 240.658 246.408 247.227 248.69 259.544C248.888 260.626 248.984 261.06 249.08 261.493C248.602 270.83 244.812 278.267 236.022 283.214C246.6 287.225 253.069 294.045 253.652 305.227C253.813 308.314 253.15 311.444 252.844 314.979C247.724 327.309 237.596 331.413 224.981 332.965C222.168 333.238 220.127 333.4 217.664 333.467C215.523 333.446 213.803 333.519 211.651 333.496C206.841 333.467 202.463 333.535 197.717 333.504C196.593 333.473 195.838 333.542 194.654 333.514C192.178 333.485 190.131 333.552 188.084 333.618C182.454 333.531 176.825 333.443 170.741 333.381C170.194 308.086 170.096 282.766 170.011 257.445C169.989 250.981 170.007 244.516 170.007 237.526C179.277 237.526 188.22 237.526 198.079 237.528C203.359 237.449 207.723 237.368 212.456 237.378C213.578 237.404 214.33 237.339 215.413 237.366C216.191 237.396 216.64 237.333 217.088 237.271ZM188.947 302.001C188.947 306.951 188.947 311.901 188.947 316.565C200.913 316.565 212.507 316.885 224.069 316.417C229.144 316.212 233.035 313.145 234.331 307.695C236.283 299.487 230.8 292.952 221.092 292.52C213.288 292.173 205.462 292.347 197.645 292.302C194.733 292.285 191.822 292.299 188.945 292.299C188.945 295.687 188.945 298.346 188.947 302.001ZM188.821 257.091C188.821 263.526 188.821 269.961 188.821 276.541C198.834 276.541 208.298 276.847 217.732 276.443C225.15 276.125 229.927 270.911 229.817 264.382C229.708 257.882 225.385 254.004 217.273 253.746C208.791 253.477 200.293 253.536 191.807 253.696C190.789 253.716 189.8 255.267 188.821 257.091Z" fill="#FAFAF9"/>
<path d="M505.486 296.5C505.486 308.594 505.486 320.688 505.486 332.999C498.661 332.999 492.61 332.999 486.096 332.999C486.096 322.954 486.096 313.185 486.094 302.586C486.029 301.003 485.967 300.25 485.997 299.037C486.02 293.549 485.951 288.52 485.971 283.048C486.004 278.003 485.949 273.401 485.988 268.393C486.023 264.821 485.962 261.656 485.993 258.121C486.028 256.999 485.972 256.245 486.009 255.032C486.103 249.021 486.103 243.469 486.103 237.571C489.505 237.571 492.277 237.547 495.049 237.576C498.944 237.618 503.113 236.615 506.387 240.495C507.103 241.368 507.515 242.098 507.965 243.18C508.984 244.671 510.007 245.776 510.937 246.955C516.33 253.795 521.702 260.652 527.119 267.749C527.304 268.334 527.561 268.523 528.02 268.896C535.961 279.371 543.808 289.514 552.175 300.328C552.175 278.981 552.175 258.738 552.288 238.378C552.401 238.26 552.249 237.972 552.649 237.833C554.729 237.567 556.41 237.44 558.548 237.405C562.948 237.496 566.891 237.496 571.403 237.496C571.403 254.563 571.403 271.027 571.312 287.948C571.28 292.768 571.338 297.132 571.304 301.955C571.275 307.773 571.338 313.132 571.311 318.861C571.283 319.986 571.345 320.741 571.32 321.917C571.295 324.056 571.359 325.773 571.332 327.886C571.306 329.354 571.371 330.428 571.437 331.501C571.187 332.106 570.937 332.71 569.931 333.35C565.03 333.374 560.882 333.459 556.744 333.298C555.336 333.243 553.382 333.021 552.649 332.101C547.763 325.974 543.14 319.637 538.331 313.063C537.534 311.972 536.839 311.186 536.119 310.434C536.094 310.469 536.175 310.439 536.112 310.151C535.285 308.987 534.522 308.11 533.758 307.233C528.486 300.252 523.214 293.271 517.557 285.833C516.553 284.72 515.932 284.065 515.213 283.081C513.446 280.664 511.777 278.575 510.028 276.16C508.686 274.218 507.425 272.6 506.163 270.983C505.853 271.122 505.542 271.261 505.232 271.4C505.355 273.101 505.477 274.803 505.491 276.947C505.44 280.425 505.499 283.462 505.451 286.941C505.391 290.423 505.439 293.462 505.486 296.5Z" fill="#FAFAF9"/>
<path d="M343.997 244.701C349.612 249.96 353.585 256.096 354.404 264.746C354.581 268.131 354.655 270.744 354.562 273.635C354.36 274.773 354.324 275.633 354.157 276.86C351.78 286.086 348.425 294.055 339.424 298.403C336.595 299.77 334.913 301.975 338.262 305.452C341.67 308.991 344.104 313.468 346.998 317.871C347.534 319.273 348.036 320.338 348.539 321.403C348.849 322.064 349.158 322.724 349.866 323.868C351.921 327.418 353.578 330.486 354.796 333.5C352.599 333.511 350.841 333.577 348.626 333.553C343.808 333.514 339.447 333.565 335.087 333.616C333.698 331.947 332.31 330.277 330.564 328.141C327.51 323.614 324.814 319.554 322.107 315.145C321.138 313.268 320.18 311.739 319.193 309.941C318.827 309.271 318.491 308.871 318.087 308.105C316.736 306.34 315.522 303.813 314.159 303.731C307.307 303.317 300.416 303.541 293.534 303.541C293.534 311.995 293.534 319.742 293.43 327.883C293.402 329.356 293.479 330.434 293.555 331.512C291.343 332.11 289.131 332.708 286.05 333.31C281.613 333.314 278.044 333.314 273.869 333.314C273.869 328.303 273.869 323.9 273.869 319.497C273.91 295.872 273.953 272.247 273.993 248.622C273.999 245.143 273.994 241.664 273.994 237.858C275.492 237.731 276.76 237.517 278.026 237.533C294.816 237.754 311.611 237.851 328.392 238.385C331.737 238.492 335.027 240.301 339.028 241.458C341.141 242.627 342.569 243.664 343.997 244.701ZM302.631 286.518C309.751 286.195 316.973 286.502 323.964 285.376C331.484 284.166 335.514 278.029 335.47 270.101C335.426 262.169 331.271 255.596 323.877 254.917C313.919 254.003 303.813 254.69 293.579 254.69C293.579 265.023 293.579 275.591 293.579 286.521C296.411 286.521 299.029 286.521 302.631 286.518Z" fill="#FAFAF9"/>
<path d="M620.344 240.52C631.729 235.196 643.606 235.066 655.582 237.601C682.055 243.203 698.29 267.856 693.325 294.59C693.142 295.573 692.998 296.563 692.83 297.977C689.508 304.568 686.191 310.731 682.451 317.353C680.65 319.226 679.272 320.639 677.559 322.168C673.51 324.788 669.795 327.291 666.08 329.794C662.632 330.92 659.184 332.047 655.005 333.322C646.96 333.585 639.647 333.7 632.333 333.815C619.183 330.946 608.327 324.3 600.107 313.659C598.164 311.143 597.192 307.878 595.373 304.343C590.123 288.221 591.423 273.298 599.516 258.786C604.77 250.42 612.062 244.908 620.344 240.52ZM673.656 293.174C673.876 290.358 674.305 287.541 674.282 284.728C674.145 267.258 663.008 254.881 646.321 253.522C628.794 252.094 615.622 262.251 612.459 279.631C609.245 297.295 619.383 313.347 635.979 316.87C653.625 320.616 669.192 311.102 673.656 293.174Z" fill="#FAFAF9"/>
<path d="M994.194 275.747C995.007 275.245 995.982 274.893 996.61 274.219C1005.11 265.083 1013.59 255.924 1022.01 246.71C1023.32 245.271 1024.29 243.522 1025.45 241.94C1027.72 238.85 1030.39 236.905 1034.62 237.179C1040.04 237.529 1045.5 237.264 1052.38 237.264C1039.68 251.426 1027.88 264.58 1015.95 277.889C1029.1 296.138 1042.19 314.309 1055.69 333.037C1047.65 333.037 1040.15 333.037 1032.7 333.037C1026.88 325.041 1020.94 316.872 1014.71 308.535C1012.61 305.815 1010.79 303.263 1008.57 300.206C1006.44 297.31 1004.69 294.919 1002.73 292.231C998.012 297.447 993.484 302.262 989.227 307.305C988.316 308.385 988.083 310.29 988.058 311.824C987.94 318.894 988.006 325.967 988.006 333.093C981.408 333.093 975.358 333.093 968.771 333.093C968.771 328.381 968.771 323.937 968.771 319.493C968.832 318.424 968.894 317.355 968.954 315.433C968.888 296.883 968.822 279.187 968.847 261.03C968.939 253.001 968.939 245.432 968.939 237.761C975.655 237.761 981.845 237.761 988.041 237.761C988.182 240.545 988.308 243.017 988.434 245.49C988.38 254.519 988.326 263.548 988.275 273.468C988.312 276.714 988.347 279.068 988.309 281.818C988.524 282.417 988.812 282.621 989.1 282.825C989.408 282.375 989.716 281.925 990.167 281.175C991.604 279.166 992.899 277.456 994.194 275.747Z" fill="#FCFCFC"/>
<path d="M375.74 292.486C375.74 274.221 375.74 255.956 375.74 237.559C382.16 237.559 388.126 237.559 394.849 237.559C394.849 239.197 394.847 240.774 394.85 242.35C394.881 256.991 394.871 271.632 394.973 286.272C394.999 289.92 395.041 293.626 395.668 297.201C398.409 312.844 409.05 319.937 424.583 316.706C434.653 314.611 440.771 307.061 441.109 295.346C441.444 283.71 441.215 272.057 441.23 259.493C441.217 252.742 441.094 246.907 441.284 241.081C441.327 239.765 442.457 238.485 443.416 237.28C444.19 237.307 444.636 237.245 445.411 237.28C446.189 237.314 446.638 237.25 447.539 237.283C451.689 237.296 455.387 237.214 459.383 237.244C459.89 237.383 460.101 237.411 460.367 237.855C460.585 247.347 460.748 256.422 460.783 265.926C460.751 268.736 460.847 271.116 460.809 273.944C460.76 278.757 460.844 283.122 460.929 287.487C460.168 293.672 459.97 299.989 458.543 306.016C453.584 326.96 435.83 333.246 421.431 334.487C414.725 335.064 408.325 333.826 401.134 332.457C396.752 330.127 393.116 327.812 389.3 325.193C385.165 319.069 381.209 313.248 377.256 307.048C377.208 305.944 377.158 305.22 377.114 304.204C376.791 303.722 376.461 303.531 376.119 302.889C375.983 299.121 375.862 295.803 375.74 292.486Z" fill="#FAFAF9"/>
<path d="M747.888 274.495C747.946 268.135 748.004 261.774 748.06 254.493C748.058 248.31 748.058 243.049 748.058 237.774C750.806 237.605 752.945 237.474 755.084 237.342C758.743 237.411 762.403 237.479 766.608 237.999C767.172 254.741 767.135 271.033 767.251 287.323C767.278 291.129 767.459 295.005 768.205 298.722C769.78 306.564 773.3 313.088 781.545 315.909C797.42 321.341 811.8 312.941 812.759 296.293C813.789 278.41 813.122 260.43 813.195 242.492C813.396 241.046 813.596 239.599 813.879 237.556C816.365 237.556 818.788 237.556 822.017 237.562C823.578 237.502 824.333 237.437 825.088 237.372C827.116 237.427 829.143 237.483 831.603 237.525C832.035 237.511 832.006 237.543 832.087 237.937C832.302 239.39 832.435 240.45 832.469 241.879C832.449 243.003 832.529 243.758 832.5 244.936C832.454 247.396 832.519 249.433 832.469 251.924C832.426 257.093 832.497 261.805 832.471 266.947C832.461 269.416 832.55 271.457 832.519 273.95C832.517 279.107 832.634 283.811 832.611 288.91C832.518 290.693 832.565 292.08 832.482 293.834C832.379 294.971 832.406 295.741 832.321 296.931C831.518 309.063 826.75 318.75 817.788 326.35C817.323 326.595 816.857 326.839 815.953 327.365C806.806 333.117 797.087 334.391 787.085 334.484C781.596 333.453 775.516 333.571 770.755 331.123C763.576 327.431 756.712 322.602 753.092 314.673C752.362 313.076 751.246 311.654 750.309 309.423C749.667 305.685 748.68 302.701 748.456 299.661C748.036 293.956 748.059 288.219 747.897 282.496C747.956 281.425 748.015 280.354 748.073 278.495C748.011 276.636 747.949 275.565 747.888 274.495Z" fill="#FAFAF9"/>
<path d="M386.899 493.101C383.443 493.316 379.987 493.531 376.232 493.765C376.232 489.761 376.232 486.176 376.232 482.591C375.901 482.321 375.569 482.052 375.238 481.782C373.903 483.376 372.569 484.969 370.765 487.01C365.501 492.112 359.408 493.658 353.082 494.649C326.16 496.404 310.322 470.026 319.453 444.798C326.307 425.861 350.847 417.395 367.263 428.66C370.37 430.792 373.053 433.542 375.806 435.901C375.806 423.46 375.806 410.406 375.806 396.881C377.413 396.781 378.81 396.693 381.082 396.603C383.339 396.708 384.721 396.817 386.606 396.965C386.606 405.1 386.606 412.796 386.606 420.492C386.548 421.25 386.491 422.008 386.45 423.455C386.558 424.597 386.648 425.05 386.738 425.503C386.662 440.962 386.585 456.421 386.518 472.637C386.652 479.963 386.775 486.532 386.899 493.101ZM347.595 433.318C333.563 436.054 325.302 449.636 328.073 465.414C330.33 478.27 341.875 486.738 354.567 484.849C369.561 482.617 378.113 470.596 375.961 454.777C374.08 440.95 362.291 431.719 347.595 433.318Z" fill="#F8F8F8"/>
<path d="M905.841 478.111C907.18 479.731 908.519 481.351 910.653 483.933C905.036 487.1 899.82 490.041 894.06 493.195C892.977 493.579 892.438 493.75 891.9 493.922C884.115 495.268 876.396 495.413 868.241 492.458C867.124 492.078 866.604 491.89 866.084 491.703C856.264 486.671 850.131 478.808 847.713 467.342C847.408 466.303 847.255 465.898 847.157 465.032C847.892 457.564 848.572 450.559 849.252 443.554C850.264 442.16 851.309 440.788 852.283 439.368C860.611 427.224 872.408 421.676 886.662 423.988C898.37 425.887 908.752 434.218 911.929 449.085C912.855 453.418 912.91 457.936 913.448 463.186C910.18 463.186 907.568 463.186 904.064 463.185C888.126 463.184 873.08 463.184 857.972 463.184C859.238 476.231 867.845 484.743 879.958 485.708C887.744 486.327 894.716 484.51 900.903 479.553C902.14 478.562 904.174 478.566 905.841 478.111ZM871.124 434.684C862.858 438.787 859.071 445.842 857.33 455.025C872.63 455.025 887.3 455.025 901.975 455.025C901.769 438.438 888.026 429.165 871.124 434.684Z" fill="#F5F5F6"/>
<path d="M603.084 463.465C591.456 463.465 579.828 463.465 568.183 463.465C569.545 483.645 593.683 494.691 614.666 477.356C616.33 479.123 618.01 480.908 619.654 482.654C609.792 496.767 583.787 498.876 570.337 487.607C560.018 478.961 556.165 468.025 557.165 454.874C558.102 442.534 564.057 432.245 574.538 427.352C595.505 417.562 614.569 427.235 620.952 447.129C622.528 452.041 622.561 457.448 623.392 463.254C616.92 463.254 611.461 463.254 605.214 463.259C603.98 463.331 603.532 463.398 603.084 463.465ZM572.333 442.355C570.509 446.434 568.685 450.512 566.6 455.175C582.691 455.175 597.341 455.175 612.323 455.175C610.456 445.386 607.266 436.761 597.173 433.786C587.573 430.957 579.143 433.705 572.333 442.355Z" fill="#F5F5F6"/>
<path d="M483.668 434.619C483.403 434.203 483.381 434.034 483.17 433.315C481.942 429.98 480.902 427.195 479.863 424.411C479.863 424.411 480.015 424.47 480.046 424.395C488.864 422.305 492.298 427.075 495.166 434.641C501.019 450.082 507.883 465.14 514.72 481.272C520.76 466.857 526.401 453.405 532.032 439.95C532.93 437.805 533.752 435.629 534.665 433.491C538.572 424.346 538.579 424.35 549.219 424.847C547.381 429.687 545.787 434.444 543.798 439.03C536.334 456.243 528.549 473.32 521.351 490.642C519.807 494.358 517.667 495.391 514.372 495.257C511.228 495.129 509.224 493.578 507.876 490.388C500.031 471.82 491.927 453.362 483.668 434.619Z" fill="#F5F5F6"/>
<path d="M653.097 476.493C653.097 482.086 653.097 487.678 653.097 493.469C649.278 493.469 646.016 493.469 642.291 493.469C642.291 488.972 642.291 484.688 642.187 479.948C642.153 459.867 642.23 440.24 642.289 420.614C642.312 412.841 642.292 405.068 642.292 397.011C645.853 397.011 648.968 397.011 652.908 397.011C652.908 406.437 652.908 416.006 652.907 426.402C652.97 427.985 653.034 428.739 653.098 429.493C653.03 443.854 652.961 458.215 652.896 473.403C652.966 474.985 653.032 475.739 653.097 476.493Z" fill="#F5F5F6"/>
<path d="M937.511 333.497C933.786 333.527 930.489 333.461 926.608 333.107C925.063 331.995 924.102 331.17 923.142 330.345C920.407 326.796 917.673 323.246 914.598 319.255C914.005 318.327 913.754 317.84 913.502 317.354C912.74 316.288 911.978 315.222 910.834 314.141C910.452 314.126 910.434 314.024 910.434 314.024C907.106 309.438 903.778 304.852 900.125 299.825C899.443 299.025 899.084 298.667 898.726 298.31C894.782 293.115 890.839 287.92 886.496 282.237C883.311 278.206 880.527 274.661 876.973 270.138C876.973 277.196 876.973 282.846 876.973 288.495C876.901 296.191 876.829 303.887 876.881 312.038C877.005 319.258 877.005 326.023 877.005 333.061C870.418 333.061 864.537 333.061 857.907 333.061C857.907 319.827 857.907 306.624 857.904 292.501C857.815 280.219 857.728 268.857 857.74 257.036C857.84 250.365 857.84 244.154 857.84 237.471C862.209 237.471 866.139 237.74 870.013 237.386C873.131 237.102 875.289 238.116 877.019 240.516C879.767 244.103 882.514 247.691 885.658 251.763C891.021 258.455 895.986 264.661 900.952 270.868C902.791 273.311 904.63 275.755 906.856 278.676C912.702 286.021 918.161 292.889 924.007 300.244C924.007 283.34 924.007 267.417 924.007 251.495C924.007 247.041 924.007 242.587 924.007 237.803C930.469 237.803 936.365 237.803 942.947 237.803C942.947 242.387 942.947 246.983 942.943 252.496C943.023 267.439 943.107 281.465 943.191 295.491C943.191 307.903 943.191 320.316 943.191 333.098C941.108 333.218 939.522 333.31 937.511 333.497Z" fill="#FAFAF9"/>
<path d="M1114.65 292.346C1111.15 297.46 1109.07 302.84 1109.69 309.313C1110.23 315.022 1109.82 320.82 1109.95 327.036C1110 328.565 1109.93 329.638 1109.8 331.464C1103.68 332.656 1097.62 333.093 1091.32 333.548C1091.13 329.281 1090.98 325.884 1090.83 322.487C1090.89 320.771 1090.95 319.056 1091.01 316.549C1090.94 315.001 1090.87 314.244 1090.81 313.487C1090.86 312.735 1090.92 311.984 1090.88 310.865C1091.69 304.545 1090.41 299.3 1087.16 294.038C1076.46 276.682 1066.18 259.061 1055.73 241.542C1055.07 240.438 1054.43 239.328 1053.3 237.424C1057.09 237.424 1060.14 237.424 1063.64 237.33C1065.6 237.291 1067.11 237.346 1069.34 237.399C1071.8 237.763 1073.55 238.128 1075.3 238.492C1083.64 252.838 1091.97 267.184 1100.65 282.12C1101.65 280.642 1102.39 279.674 1102.99 278.62C1110.09 266.036 1117.23 253.473 1124.2 240.816C1125.67 238.148 1127.38 237.089 1130.48 237.284C1135.25 237.586 1140.05 237.364 1145.86 237.364C1140.26 247.287 1135.08 256.469 1129.51 266.198C1124.3 275.279 1119.48 283.813 1114.65 292.346Z" fill="#FAFAF9"/>
</svg>
