<?xml version="1.0" encoding="utf-8" ?>
<svg baseProfile="full" height="1024px" version="1.1" width="1024px" xmlns="http://www.w3.org/2000/svg" xmlns:ev="http://www.w3.org/2001/xml-events" xmlns:xlink="http://www.w3.org/1999/xlink"><defs /><polygon fill="black" points="793.0,698.0 792.0,699.0 790.0,699.0 789.0,700.0 788.0,700.0 786.0,702.0 785.0,702.0 783.0,704.0 782.0,703.0 782.0,699.0 770.0,699.0 770.0,764.0 782.0,764.0 782.0,745.0 783.0,744.0 784.0,744.0 786.0,746.0 787.0,746.0 789.0,748.0 790.0,748.0 791.0,749.0 794.0,749.0 795.0,750.0 802.0,750.0 803.0,749.0 805.0,749.0 806.0,748.0 807.0,748.0 808.0,747.0 809.0,747.0 811.0,745.0 812.0,745.0 814.0,743.0 814.0,742.0 816.0,740.0 816.0,739.0 817.0,738.0 817.0,737.0 818.0,736.0 818.0,735.0 819.0,734.0 819.0,731.0 820.0,730.0 820.0,717.0 819.0,716.0 819.0,713.0 818.0,712.0 818.0,711.0 817.0,710.0 817.0,709.0 815.0,707.0 815.0,706.0 811.0,702.0 810.0,702.0 808.0,700.0 806.0,700.0 805.0,699.0 804.0,699.0 803.0,698.0" /><polygon fill="black" points="731.0,698.0 730.0,699.0 728.0,699.0 727.0,700.0 726.0,700.0 721.0,705.0 720.0,704.0 720.0,699.0 709.0,699.0 709.0,764.0 710.0,765.0 717.0,765.0 718.0,764.0 720.0,764.0 720.0,746.0 722.0,744.0 724.0,746.0 725.0,746.0 726.0,747.0 727.0,747.0 728.0,748.0 729.0,748.0 730.0,749.0 733.0,749.0 734.0,750.0 738.0,750.0 739.0,749.0 743.0,749.0 744.0,748.0 745.0,748.0 746.0,747.0 747.0,747.0 749.0,745.0 750.0,745.0 753.0,742.0 753.0,741.0 755.0,739.0 755.0,738.0 756.0,737.0 756.0,736.0 757.0,735.0 757.0,733.0 758.0,732.0 758.0,729.0 759.0,728.0 759.0,719.0 758.0,718.0 758.0,715.0 757.0,714.0 757.0,712.0 756.0,711.0 756.0,710.0 755.0,709.0 755.0,708.0 752.0,705.0 752.0,704.0 751.0,703.0 750.0,703.0 748.0,701.0 747.0,701.0 746.0,700.0 745.0,700.0 744.0,699.0 743.0,699.0 742.0,698.0" /><polygon fill="black" points="598.0,697.0 597.0,698.0 591.0,698.0 590.0,699.0 587.0,699.0 586.0,700.0 585.0,700.0 584.0,701.0 582.0,701.0 582.0,703.0 583.0,704.0 583.0,705.0 584.0,706.0 584.0,708.0 585.0,709.0 585.0,711.0 587.0,711.0 588.0,710.0 590.0,710.0 591.0,709.0 596.0,709.0 597.0,708.0 604.0,708.0 605.0,709.0 607.0,709.0 608.0,710.0 609.0,710.0 611.0,712.0 611.0,713.0 612.0,714.0 612.0,716.0 613.0,717.0 613.0,718.0 612.0,719.0 604.0,719.0 603.0,718.0 599.0,718.0 598.0,719.0 591.0,719.0 590.0,720.0 588.0,720.0 587.0,721.0 586.0,721.0 584.0,723.0 583.0,723.0 582.0,724.0 582.0,725.0 580.0,727.0 580.0,728.0 579.0,729.0 579.0,739.0 580.0,740.0 580.0,741.0 581.0,742.0 581.0,743.0 584.0,746.0 585.0,746.0 587.0,748.0 589.0,748.0 590.0,749.0 594.0,749.0 595.0,750.0 597.0,750.0 598.0,749.0 602.0,749.0 603.0,748.0 605.0,748.0 606.0,747.0 607.0,747.0 609.0,745.0 610.0,745.0 611.0,744.0 612.0,745.0 612.0,748.0 613.0,749.0 624.0,749.0 624.0,712.0 623.0,711.0 623.0,709.0 622.0,708.0 622.0,707.0 620.0,705.0 620.0,704.0 618.0,702.0 617.0,702.0 615.0,700.0 613.0,700.0 612.0,699.0 611.0,699.0 610.0,698.0 605.0,698.0 604.0,697.0" /><polygon fill="black" points="508.0,697.0 507.0,698.0 505.0,698.0 504.0,699.0 503.0,699.0 502.0,700.0 501.0,700.0 500.0,701.0 499.0,701.0 496.0,704.0 495.0,703.0 495.0,699.0 494.0,698.0 484.0,698.0 483.0,699.0 483.0,749.0 495.0,749.0 495.0,718.0 496.0,717.0 496.0,716.0 497.0,715.0 497.0,714.0 502.0,709.0 504.0,709.0 505.0,708.0 509.0,708.0 510.0,709.0 512.0,709.0 517.0,714.0 517.0,715.0 518.0,716.0 518.0,748.0 519.0,749.0 530.0,749.0 530.0,713.0 529.0,712.0 529.0,709.0 528.0,708.0 528.0,707.0 527.0,706.0 527.0,705.0 525.0,703.0 525.0,702.0 524.0,701.0 523.0,701.0 521.0,699.0 520.0,699.0 519.0,698.0 517.0,698.0 516.0,697.0" /><polygon fill="black" points="440.0,697.0 439.0,698.0 436.0,698.0 435.0,699.0 434.0,699.0 433.0,700.0 432.0,700.0 431.0,701.0 430.0,701.0 428.0,703.0 427.0,703.0 424.0,706.0 424.0,707.0 422.0,709.0 422.0,710.0 421.0,711.0 421.0,712.0 420.0,713.0 420.0,715.0 419.0,716.0 419.0,720.0 418.0,721.0 418.0,727.0 419.0,728.0 419.0,731.0 420.0,732.0 420.0,734.0 421.0,735.0 421.0,736.0 422.0,737.0 422.0,738.0 423.0,739.0 423.0,740.0 427.0,744.0 428.0,744.0 430.0,746.0 431.0,746.0 432.0,747.0 433.0,747.0 434.0,748.0 436.0,748.0 437.0,749.0 442.0,749.0 443.0,750.0 447.0,750.0 448.0,749.0 453.0,749.0 454.0,748.0 456.0,748.0 457.0,747.0 458.0,747.0 459.0,746.0 460.0,746.0 463.0,743.0 464.0,743.0 465.0,742.0 465.0,741.0 468.0,738.0 468.0,737.0 469.0,736.0 469.0,735.0 470.0,734.0 470.0,733.0 471.0,732.0 471.0,728.0 472.0,727.0 472.0,719.0 471.0,718.0 471.0,715.0 470.0,714.0 470.0,712.0 469.0,711.0 469.0,710.0 468.0,709.0 468.0,708.0 461.0,701.0 460.0,701.0 459.0,700.0 458.0,700.0 457.0,699.0 455.0,699.0 454.0,698.0 452.0,698.0 451.0,697.0" /><polygon fill="black" points="386.0,697.0 385.0,698.0 382.0,698.0 381.0,699.0 379.0,699.0 378.0,700.0 377.0,700.0 376.0,701.0 375.0,701.0 368.0,708.0 368.0,709.0 367.0,710.0 367.0,711.0 366.0,712.0 366.0,714.0 365.0,715.0 365.0,717.0 364.0,718.0 364.0,729.0 365.0,730.0 365.0,733.0 366.0,734.0 366.0,736.0 367.0,737.0 367.0,738.0 369.0,740.0 369.0,741.0 373.0,745.0 374.0,745.0 375.0,746.0 376.0,746.0 377.0,747.0 378.0,747.0 379.0,748.0 380.0,748.0 381.0,749.0 384.0,749.0 385.0,750.0 394.0,750.0 395.0,749.0 399.0,749.0 400.0,748.0 401.0,748.0 402.0,747.0 403.0,747.0 404.0,746.0 405.0,746.0 406.0,745.0 407.0,745.0 412.0,740.0 412.0,738.0 411.0,737.0 410.0,737.0 409.0,736.0 408.0,736.0 406.0,734.0 405.0,734.0 404.0,733.0 402.0,733.0 402.0,734.0 399.0,737.0 398.0,737.0 397.0,738.0 396.0,738.0 395.0,739.0 386.0,739.0 385.0,738.0 384.0,738.0 382.0,736.0 381.0,736.0 380.0,735.0 380.0,734.0 378.0,732.0 378.0,731.0 377.0,730.0 377.0,728.0 376.0,727.0 376.0,720.0 377.0,719.0 377.0,717.0 378.0,716.0 378.0,715.0 383.0,710.0 384.0,710.0 385.0,709.0 386.0,709.0 387.0,708.0 395.0,708.0 396.0,709.0 397.0,709.0 398.0,710.0 399.0,710.0 401.0,712.0 401.0,713.0 402.0,714.0 404.0,714.0 407.0,711.0 408.0,711.0 410.0,709.0 411.0,709.0 412.0,708.0 412.0,707.0 407.0,702.0 406.0,702.0 404.0,700.0 403.0,700.0 402.0,699.0 400.0,699.0 399.0,698.0 396.0,698.0 395.0,697.0" /><polygon fill="black" points="330.0,697.0 329.0,698.0 325.0,698.0 324.0,699.0 322.0,699.0 321.0,700.0 320.0,700.0 319.0,701.0 318.0,701.0 316.0,703.0 315.0,703.0 312.0,706.0 312.0,707.0 310.0,709.0 310.0,710.0 309.0,711.0 309.0,712.0 308.0,713.0 308.0,715.0 307.0,716.0 307.0,720.0 306.0,721.0 306.0,727.0 307.0,728.0 307.0,732.0 308.0,733.0 308.0,735.0 309.0,736.0 309.0,737.0 310.0,738.0 310.0,739.0 317.0,746.0 318.0,746.0 319.0,747.0 320.0,747.0 321.0,748.0 324.0,748.0 325.0,749.0 329.0,749.0 330.0,750.0 335.0,750.0 336.0,749.0 341.0,749.0 342.0,748.0 343.0,748.0 344.0,747.0 346.0,747.0 347.0,746.0 348.0,746.0 352.0,742.0 353.0,742.0 353.0,740.0 352.0,740.0 347.0,735.0 346.0,735.0 344.0,737.0 343.0,737.0 342.0,738.0 341.0,738.0 340.0,739.0 338.0,739.0 337.0,740.0 329.0,740.0 328.0,739.0 327.0,739.0 326.0,738.0 325.0,738.0 319.0,732.0 319.0,729.0 320.0,728.0 357.0,728.0 357.0,723.0 356.0,722.0 356.0,715.0 355.0,714.0 355.0,712.0 354.0,711.0 354.0,709.0 352.0,707.0 352.0,706.0 350.0,704.0 349.0,704.0 346.0,701.0 345.0,701.0 344.0,700.0 343.0,700.0 342.0,699.0 340.0,699.0 339.0,698.0 336.0,698.0 335.0,697.0" /><polygon fill="black" points="547.0,685.0 547.0,698.0 546.0,699.0 540.0,699.0 540.0,708.0 545.0,708.0 546.0,709.0 546.0,732.0 547.0,733.0 547.0,741.0 548.0,742.0 548.0,743.0 549.0,744.0 549.0,745.0 552.0,748.0 554.0,748.0 555.0,749.0 558.0,749.0 559.0,750.0 562.0,750.0 563.0,749.0 567.0,749.0 568.0,748.0 570.0,748.0 571.0,747.0 571.0,744.0 570.0,743.0 570.0,741.0 569.0,740.0 569.0,738.0 568.0,739.0 566.0,739.0 565.0,740.0 562.0,740.0 559.0,737.0 559.0,734.0 558.0,733.0 558.0,725.0 559.0,724.0 559.0,709.0 560.0,708.0 570.0,708.0 570.0,699.0 559.0,699.0 558.0,698.0 559.0,697.0 559.0,696.0 558.0,695.0 558.0,692.0 559.0,691.0 559.0,689.0 558.0,688.0 559.0,687.0 559.0,686.0 558.0,685.0" /><polygon fill="black" points="660.0,682.0 660.0,683.0 659.0,684.0 659.0,685.0 658.0,686.0 658.0,688.0 657.0,689.0 657.0,690.0 656.0,691.0 656.0,693.0 655.0,694.0 655.0,695.0 654.0,696.0 654.0,697.0 653.0,698.0 653.0,700.0 652.0,701.0 652.0,702.0 651.0,703.0 651.0,705.0 650.0,706.0 650.0,707.0 649.0,708.0 649.0,709.0 648.0,710.0 648.0,711.0 647.0,712.0 647.0,714.0 646.0,715.0 646.0,716.0 645.0,717.0 645.0,719.0 644.0,720.0 644.0,721.0 643.0,722.0 643.0,723.0 642.0,724.0 642.0,726.0 641.0,727.0 641.0,728.0 640.0,729.0 640.0,730.0 639.0,731.0 639.0,732.0 638.0,733.0 638.0,735.0 637.0,736.0 637.0,737.0 636.0,738.0 636.0,739.0 635.0,740.0 635.0,742.0 634.0,743.0 634.0,744.0 633.0,745.0 633.0,746.0 632.0,747.0 632.0,749.0 644.0,749.0 645.0,748.0 645.0,747.0 646.0,746.0 646.0,744.0 647.0,743.0 647.0,741.0 648.0,740.0 648.0,739.0 649.0,738.0 649.0,736.0 650.0,735.0 682.0,735.0 684.0,737.0 684.0,738.0 685.0,739.0 685.0,741.0 686.0,742.0 686.0,744.0 687.0,745.0 687.0,747.0 688.0,748.0 688.0,749.0 701.0,749.0 701.0,748.0 700.0,747.0 700.0,746.0 699.0,745.0 699.0,744.0 698.0,743.0 698.0,741.0 697.0,740.0 697.0,739.0 696.0,738.0 696.0,736.0 695.0,735.0 695.0,734.0 694.0,733.0 694.0,732.0 693.0,731.0 693.0,730.0 692.0,729.0 692.0,727.0 691.0,726.0 691.0,725.0 690.0,724.0 690.0,723.0 689.0,722.0 689.0,720.0 688.0,719.0 688.0,718.0 687.0,717.0 687.0,716.0 686.0,715.0 686.0,714.0 685.0,713.0 685.0,712.0 684.0,711.0 684.0,709.0 683.0,708.0 683.0,707.0 682.0,706.0 682.0,705.0 681.0,704.0 681.0,702.0 680.0,701.0 680.0,700.0 679.0,699.0 679.0,698.0 678.0,697.0 678.0,695.0 677.0,694.0 677.0,693.0 676.0,692.0 676.0,691.0 675.0,690.0 675.0,688.0 674.0,687.0 674.0,686.0 673.0,685.0 673.0,684.0 672.0,683.0 672.0,682.0" /><polygon fill="black" points="243.0,681.0 243.0,749.0 255.0,749.0 255.0,728.0 256.0,727.0 270.0,727.0 272.0,729.0 272.0,730.0 274.0,732.0 274.0,733.0 277.0,736.0 277.0,737.0 279.0,739.0 279.0,740.0 281.0,742.0 281.0,743.0 283.0,745.0 283.0,746.0 285.0,748.0 285.0,749.0 300.0,749.0 299.0,748.0 299.0,747.0 296.0,744.0 296.0,743.0 294.0,741.0 294.0,740.0 292.0,738.0 292.0,737.0 289.0,734.0 289.0,733.0 287.0,731.0 287.0,730.0 285.0,728.0 285.0,727.0 283.0,725.0 284.0,724.0 285.0,724.0 286.0,723.0 287.0,723.0 288.0,722.0 289.0,722.0 293.0,718.0 293.0,717.0 295.0,715.0 295.0,713.0 296.0,712.0 296.0,710.0 297.0,709.0 297.0,697.0 296.0,696.0 296.0,694.0 295.0,693.0 295.0,692.0 294.0,691.0 294.0,690.0 289.0,685.0 288.0,685.0 287.0,684.0 286.0,684.0 285.0,683.0 284.0,683.0 283.0,682.0 281.0,682.0 280.0,681.0" /><polygon fill="black" points="407.0,544.0 404.0,547.0 404.0,583.0 405.0,584.0 405.0,586.0 406.0,587.0 406.0,588.0 409.0,591.0 411.0,591.0 412.0,592.0 421.0,592.0 422.0,593.0 423.0,592.0 424.0,592.0 425.0,593.0 446.0,593.0 447.0,592.0 448.0,593.0 449.0,592.0 454.0,592.0 457.0,589.0 457.0,583.0 454.0,580.0 439.0,580.0 438.0,579.0 428.0,579.0 427.0,580.0 418.0,580.0 417.0,579.0 417.0,549.0 416.0,548.0 416.0,547.0 415.0,546.0 415.0,545.0 414.0,545.0 413.0,544.0" /><polygon fill="black" points="380.0,543.0 379.0,544.0 378.0,544.0 375.0,547.0 375.0,612.0 376.0,613.0 376.0,615.0 377.0,616.0 377.0,617.0 380.0,620.0 381.0,620.0 382.0,621.0 383.0,621.0 384.0,622.0 386.0,622.0 387.0,623.0 453.0,623.0 454.0,622.0 455.0,622.0 458.0,619.0 458.0,613.0 455.0,610.0 454.0,610.0 453.0,609.0 390.0,609.0 388.0,607.0 388.0,548.0 387.0,547.0 387.0,546.0 386.0,545.0 386.0,544.0 385.0,544.0 384.0,543.0" /><polygon fill="black" points="430.0,479.0 430.0,550.0 431.0,550.0 433.0,552.0 434.0,552.0 435.0,553.0 436.0,553.0 438.0,555.0 439.0,555.0 440.0,556.0 441.0,556.0 443.0,558.0 444.0,558.0 446.0,560.0 447.0,560.0 449.0,562.0 450.0,562.0 451.0,563.0 452.0,563.0 454.0,565.0 455.0,565.0 457.0,567.0 458.0,567.0 459.0,568.0 460.0,568.0 462.0,570.0 463.0,570.0 465.0,572.0 466.0,572.0 467.0,573.0 468.0,573.0 470.0,575.0 471.0,575.0 472.0,576.0 473.0,576.0 475.0,578.0 476.0,578.0 478.0,580.0 479.0,580.0 480.0,581.0 481.0,581.0 483.0,583.0 484.0,583.0 485.0,584.0 486.0,584.0 488.0,586.0 489.0,586.0 491.0,588.0 493.0,588.0 493.0,495.0 492.0,494.0 489.0,494.0 488.0,493.0 485.0,493.0 484.0,492.0 480.0,492.0 479.0,491.0 476.0,491.0 475.0,490.0 472.0,490.0 471.0,489.0 468.0,489.0 467.0,488.0 464.0,488.0 463.0,487.0 459.0,487.0 458.0,486.0 455.0,486.0 454.0,485.0 451.0,485.0 450.0,484.0 448.0,484.0 447.0,483.0 444.0,483.0 443.0,482.0 440.0,482.0 439.0,481.0 436.0,481.0 435.0,480.0 432.0,480.0 431.0,479.0" /><polygon fill="black" points="492.0,391.0 491.0,392.0 487.0,392.0 486.0,393.0 483.0,393.0 482.0,394.0 478.0,394.0 477.0,395.0 473.0,395.0 472.0,396.0 468.0,396.0 467.0,397.0 463.0,397.0 462.0,398.0 458.0,398.0 457.0,399.0 454.0,399.0 453.0,400.0 449.0,400.0 448.0,401.0 444.0,401.0 443.0,402.0 439.0,402.0 439.0,469.0 440.0,469.0 441.0,470.0 443.0,470.0 444.0,471.0 447.0,471.0 448.0,472.0 451.0,472.0 452.0,473.0 455.0,473.0 456.0,474.0 459.0,474.0 460.0,475.0 463.0,475.0 464.0,476.0 466.0,476.0 467.0,477.0 470.0,477.0 471.0,478.0 474.0,478.0 475.0,479.0 477.0,479.0 478.0,480.0 481.0,480.0 482.0,481.0 485.0,481.0 486.0,482.0 489.0,482.0 490.0,483.0 493.0,483.0 493.0,482.0 492.0,481.0 493.0,480.0 493.0,477.0 492.0,476.0 492.0,471.0 493.0,470.0 493.0,391.0" /><polygon fill="black" points="501.0,316.0 500.0,317.0 500.0,334.0 527.0,334.0 528.0,335.0 537.0,335.0 538.0,336.0 541.0,336.0 542.0,337.0 544.0,337.0 545.0,338.0 546.0,338.0 547.0,339.0 548.0,339.0 549.0,340.0 550.0,340.0 551.0,341.0 552.0,341.0 553.0,342.0 554.0,342.0 557.0,345.0 558.0,345.0 566.0,353.0 566.0,354.0 568.0,356.0 568.0,357.0 570.0,359.0 570.0,360.0 571.0,361.0 571.0,362.0 572.0,363.0 572.0,365.0 573.0,366.0 573.0,368.0 574.0,369.0 574.0,371.0 575.0,372.0 575.0,375.0 576.0,376.0 576.0,396.0 575.0,397.0 575.0,401.0 574.0,402.0 574.0,404.0 573.0,405.0 573.0,407.0 572.0,408.0 572.0,409.0 571.0,410.0 571.0,411.0 570.0,412.0 570.0,413.0 569.0,414.0 569.0,415.0 568.0,416.0 568.0,417.0 565.0,420.0 565.0,421.0 556.0,430.0 555.0,430.0 552.0,433.0 551.0,433.0 549.0,435.0 548.0,435.0 547.0,436.0 545.0,436.0 544.0,435.0 544.0,404.0 543.0,403.0 541.0,403.0 540.0,402.0 537.0,402.0 536.0,401.0 534.0,401.0 533.0,400.0 530.0,400.0 529.0,399.0 527.0,399.0 526.0,398.0 524.0,398.0 523.0,397.0 521.0,397.0 520.0,396.0 517.0,396.0 516.0,395.0 514.0,395.0 513.0,394.0 510.0,394.0 509.0,393.0 507.0,393.0 506.0,392.0 504.0,392.0 503.0,391.0 501.0,391.0 501.0,483.0 504.0,483.0 505.0,482.0 509.0,482.0 510.0,481.0 513.0,481.0 514.0,480.0 517.0,480.0 518.0,479.0 522.0,479.0 523.0,478.0 526.0,478.0 527.0,477.0 530.0,477.0 531.0,476.0 534.0,476.0 535.0,475.0 538.0,475.0 539.0,474.0 543.0,474.0 544.0,473.0 544.0,457.0 546.0,455.0 548.0,455.0 549.0,454.0 550.0,454.0 551.0,453.0 552.0,453.0 553.0,452.0 554.0,452.0 555.0,451.0 556.0,451.0 557.0,450.0 558.0,450.0 560.0,448.0 561.0,448.0 563.0,446.0 564.0,446.0 570.0,440.0 571.0,440.0 573.0,438.0 573.0,437.0 578.0,432.0 578.0,431.0 581.0,428.0 581.0,427.0 583.0,425.0 583.0,424.0 584.0,423.0 584.0,422.0 585.0,421.0 585.0,420.0 586.0,419.0 586.0,418.0 587.0,417.0 587.0,416.0 588.0,415.0 588.0,413.0 589.0,412.0 589.0,410.0 590.0,409.0 590.0,408.0 591.0,407.0 591.0,404.0 592.0,403.0 592.0,399.0 593.0,398.0 593.0,392.0 594.0,391.0 594.0,380.0 593.0,379.0 593.0,373.0 592.0,372.0 592.0,368.0 591.0,367.0 591.0,364.0 590.0,363.0 590.0,361.0 589.0,360.0 589.0,359.0 588.0,358.0 588.0,357.0 587.0,356.0 587.0,354.0 586.0,353.0 586.0,352.0 585.0,351.0 585.0,350.0 583.0,348.0 583.0,347.0 581.0,345.0 581.0,344.0 577.0,340.0 577.0,339.0 571.0,333.0 570.0,333.0 567.0,330.0 566.0,330.0 564.0,328.0 563.0,328.0 561.0,326.0 560.0,326.0 559.0,325.0 558.0,325.0 557.0,324.0 556.0,324.0 555.0,323.0 554.0,323.0 553.0,322.0 552.0,322.0 551.0,321.0 549.0,321.0 548.0,320.0 546.0,320.0 545.0,319.0 541.0,319.0 540.0,318.0 536.0,318.0 535.0,317.0 507.0,317.0 506.0,316.0" /><polygon fill="black" points="468.0,309.0 467.0,310.0 462.0,310.0 461.0,311.0 457.0,311.0 456.0,312.0 451.0,312.0 450.0,313.0 446.0,313.0 445.0,314.0 439.0,314.0 438.0,315.0 434.0,315.0 433.0,316.0 429.0,316.0 428.0,317.0 424.0,317.0 423.0,318.0 419.0,318.0 418.0,319.0 413.0,319.0 412.0,320.0 407.0,320.0 406.0,321.0 401.0,321.0 400.0,322.0 396.0,322.0 395.0,323.0 392.0,323.0 391.0,324.0 389.0,324.0 388.0,325.0 387.0,325.0 386.0,326.0 385.0,326.0 384.0,327.0 383.0,327.0 382.0,328.0 381.0,328.0 377.0,332.0 376.0,332.0 376.0,333.0 372.0,337.0 372.0,338.0 370.0,340.0 370.0,341.0 369.0,342.0 369.0,343.0 368.0,344.0 368.0,345.0 367.0,346.0 367.0,347.0 366.0,348.0 366.0,350.0 365.0,351.0 365.0,354.0 364.0,355.0 364.0,359.0 363.0,360.0 363.0,364.0 362.0,365.0 362.0,368.0 361.0,369.0 361.0,373.0 360.0,374.0 360.0,378.0 359.0,379.0 359.0,382.0 358.0,383.0 358.0,387.0 357.0,388.0 357.0,393.0 356.0,394.0 356.0,398.0 355.0,399.0 355.0,402.0 354.0,403.0 354.0,407.0 353.0,408.0 353.0,412.0 352.0,413.0 352.0,417.0 351.0,418.0 351.0,422.0 350.0,423.0 350.0,427.0 349.0,428.0 349.0,432.0 348.0,433.0 348.0,437.0 347.0,438.0 347.0,442.0 346.0,443.0 346.0,447.0 345.0,448.0 345.0,452.0 344.0,453.0 344.0,457.0 343.0,458.0 343.0,462.0 342.0,463.0 342.0,467.0 341.0,468.0 341.0,472.0 340.0,473.0 340.0,477.0 339.0,478.0 339.0,482.0 338.0,483.0 338.0,486.0 337.0,487.0 337.0,491.0 336.0,492.0 336.0,497.0 335.0,498.0 335.0,502.0 334.0,503.0 334.0,507.0 333.0,508.0 333.0,512.0 332.0,513.0 332.0,517.0 331.0,518.0 331.0,523.0 330.0,524.0 330.0,530.0 331.0,531.0 331.0,534.0 332.0,535.0 332.0,536.0 333.0,537.0 333.0,538.0 335.0,540.0 335.0,541.0 338.0,544.0 339.0,544.0 341.0,546.0 342.0,546.0 343.0,547.0 344.0,547.0 345.0,548.0 356.0,548.0 357.0,547.0 359.0,547.0 360.0,546.0 361.0,546.0 362.0,545.0 363.0,545.0 364.0,544.0 365.0,544.0 366.0,543.0 368.0,543.0 369.0,542.0 370.0,542.0 371.0,541.0 372.0,541.0 373.0,540.0 374.0,540.0 375.0,539.0 376.0,539.0 377.0,538.0 379.0,538.0 380.0,537.0 381.0,537.0 382.0,536.0 383.0,536.0 384.0,535.0 385.0,535.0 386.0,534.0 387.0,534.0 388.0,533.0 389.0,533.0 390.0,532.0 391.0,532.0 399.0,524.0 399.0,523.0 400.0,522.0 400.0,521.0 401.0,520.0 401.0,519.0 402.0,518.0 402.0,516.0 403.0,515.0 403.0,512.0 404.0,511.0 404.0,509.0 405.0,508.0 405.0,504.0 406.0,503.0 406.0,499.0 407.0,498.0 407.0,495.0 408.0,494.0 408.0,491.0 409.0,490.0 409.0,486.0 410.0,485.0 410.0,481.0 411.0,480.0 411.0,476.0 412.0,475.0 412.0,472.0 413.0,471.0 413.0,468.0 414.0,467.0 414.0,463.0 415.0,462.0 415.0,459.0 416.0,458.0 416.0,455.0 417.0,454.0 417.0,450.0 418.0,449.0 418.0,445.0 419.0,444.0 419.0,440.0 420.0,439.0 420.0,436.0 421.0,435.0 421.0,431.0 422.0,430.0 422.0,427.0 423.0,426.0 423.0,422.0 424.0,421.0 424.0,417.0 425.0,416.0 425.0,412.0 426.0,411.0 426.0,407.0 427.0,406.0 427.0,403.0 428.0,402.0 428.0,400.0 431.0,397.0 432.0,397.0 433.0,396.0 435.0,396.0 436.0,395.0 440.0,395.0 441.0,394.0 444.0,394.0 445.0,393.0 448.0,393.0 449.0,392.0 452.0,392.0 453.0,391.0 456.0,391.0 457.0,390.0 461.0,390.0 462.0,389.0 463.0,389.0 464.0,388.0 466.0,388.0 471.0,383.0 471.0,382.0 472.0,381.0 472.0,380.0 473.0,379.0 473.0,378.0 474.0,377.0 474.0,375.0 475.0,374.0 475.0,373.0 476.0,372.0 476.0,369.0 477.0,368.0 477.0,367.0 478.0,366.0 478.0,363.0 479.0,362.0 479.0,360.0 480.0,359.0 480.0,357.0 481.0,356.0 481.0,354.0 482.0,353.0 482.0,351.0 483.0,350.0 483.0,348.0 484.0,347.0 484.0,345.0 485.0,344.0 485.0,342.0 486.0,341.0 486.0,338.0 487.0,337.0 487.0,335.0 488.0,334.0 488.0,332.0 489.0,331.0 489.0,321.0 488.0,320.0 488.0,318.0 487.0,317.0 487.0,316.0 485.0,314.0 485.0,313.0 484.0,313.0 482.0,311.0 481.0,311.0 480.0,310.0 478.0,310.0 477.0,309.0" /><polygon fill="black" points="374.0,263.0 374.0,282.0 373.0,283.0 373.0,314.0 376.0,314.0 377.0,313.0 381.0,313.0 382.0,312.0 387.0,312.0 388.0,311.0 390.0,311.0 390.0,282.0 391.0,281.0 540.0,281.0 541.0,282.0 546.0,282.0 547.0,283.0 550.0,283.0 551.0,284.0 554.0,284.0 555.0,285.0 558.0,285.0 559.0,286.0 561.0,286.0 562.0,287.0 563.0,287.0 564.0,288.0 566.0,288.0 567.0,289.0 568.0,289.0 569.0,290.0 570.0,290.0 571.0,291.0 572.0,291.0 573.0,292.0 574.0,292.0 575.0,293.0 576.0,293.0 577.0,294.0 578.0,294.0 580.0,296.0 581.0,296.0 583.0,298.0 584.0,298.0 586.0,300.0 587.0,300.0 590.0,303.0 591.0,303.0 606.0,318.0 606.0,319.0 609.0,322.0 609.0,323.0 611.0,325.0 611.0,326.0 613.0,328.0 613.0,329.0 614.0,330.0 614.0,331.0 615.0,332.0 615.0,333.0 617.0,335.0 617.0,336.0 618.0,337.0 618.0,338.0 619.0,339.0 619.0,340.0 620.0,341.0 620.0,343.0 621.0,344.0 621.0,345.0 622.0,346.0 622.0,348.0 623.0,349.0 623.0,351.0 624.0,352.0 624.0,354.0 625.0,355.0 625.0,358.0 626.0,359.0 626.0,362.0 627.0,363.0 627.0,367.0 628.0,368.0 628.0,374.0 629.0,375.0 629.0,399.0 628.0,400.0 628.0,406.0 627.0,407.0 627.0,411.0 626.0,412.0 626.0,415.0 625.0,416.0 625.0,418.0 624.0,419.0 624.0,422.0 623.0,423.0 623.0,425.0 622.0,426.0 622.0,427.0 621.0,428.0 621.0,430.0 620.0,431.0 620.0,432.0 619.0,433.0 619.0,434.0 618.0,435.0 618.0,437.0 616.0,439.0 616.0,440.0 615.0,441.0 615.0,442.0 614.0,443.0 614.0,444.0 613.0,445.0 613.0,446.0 611.0,448.0 611.0,449.0 608.0,452.0 608.0,453.0 606.0,455.0 606.0,456.0 590.0,472.0 589.0,472.0 585.0,476.0 584.0,476.0 582.0,478.0 581.0,478.0 579.0,480.0 578.0,479.0 578.0,478.0 575.0,478.0 574.0,479.0 571.0,479.0 570.0,480.0 567.0,480.0 566.0,481.0 563.0,481.0 562.0,482.0 558.0,482.0 557.0,483.0 553.0,483.0 552.0,484.0 549.0,484.0 548.0,485.0 548.0,513.0 547.0,514.0 540.0,514.0 539.0,515.0 536.0,515.0 535.0,514.0 535.0,499.0 536.0,498.0 535.0,497.0 536.0,496.0 536.0,488.0 532.0,488.0 531.0,489.0 527.0,489.0 526.0,490.0 523.0,490.0 522.0,491.0 519.0,491.0 518.0,492.0 515.0,492.0 514.0,493.0 510.0,493.0 509.0,494.0 505.0,494.0 504.0,495.0 501.0,495.0 501.0,590.0 503.0,590.0 504.0,589.0 507.0,589.0 508.0,588.0 511.0,588.0 512.0,587.0 515.0,587.0 516.0,586.0 520.0,586.0 521.0,585.0 524.0,585.0 525.0,584.0 528.0,584.0 529.0,583.0 532.0,583.0 533.0,582.0 535.0,582.0 536.0,581.0 539.0,581.0 542.0,584.0 542.0,585.0 545.0,588.0 545.0,589.0 547.0,591.0 547.0,592.0 550.0,595.0 550.0,596.0 553.0,599.0 553.0,600.0 556.0,603.0 556.0,604.0 559.0,607.0 559.0,608.0 562.0,611.0 562.0,612.0 566.0,616.0 566.0,617.0 568.0,619.0 568.0,620.0 570.0,622.0 570.0,623.0 572.0,625.0 572.0,626.0 669.0,626.0 669.0,625.0 667.0,623.0 667.0,622.0 664.0,619.0 664.0,618.0 660.0,614.0 660.0,613.0 657.0,610.0 657.0,609.0 653.0,605.0 653.0,604.0 650.0,601.0 650.0,600.0 646.0,596.0 646.0,595.0 643.0,592.0 643.0,591.0 639.0,587.0 639.0,586.0 635.0,582.0 635.0,581.0 631.0,577.0 631.0,576.0 627.0,572.0 627.0,571.0 624.0,568.0 624.0,567.0 620.0,563.0 620.0,562.0 616.0,558.0 616.0,557.0 613.0,554.0 613.0,553.0 609.0,549.0 609.0,548.0 605.0,544.0 605.0,543.0 602.0,540.0 602.0,539.0 598.0,535.0 598.0,534.0 594.0,530.0 594.0,529.0 590.0,525.0 590.0,524.0 587.0,521.0 587.0,520.0 583.0,516.0 583.0,515.0 580.0,512.0 580.0,511.0 578.0,509.0 578.0,504.0 579.0,503.0 579.0,501.0 578.0,500.0 579.0,499.0 580.0,499.0 581.0,498.0 582.0,498.0 583.0,497.0 584.0,497.0 586.0,495.0 587.0,495.0 588.0,494.0 589.0,494.0 591.0,492.0 592.0,492.0 594.0,490.0 595.0,490.0 598.0,487.0 599.0,487.0 604.0,482.0 605.0,482.0 611.0,476.0 611.0,475.0 612.0,474.0 613.0,474.0 613.0,473.0 619.0,467.0 619.0,466.0 621.0,464.0 621.0,463.0 624.0,460.0 624.0,459.0 626.0,457.0 626.0,456.0 628.0,454.0 628.0,453.0 629.0,452.0 629.0,451.0 631.0,449.0 631.0,448.0 632.0,447.0 632.0,446.0 633.0,445.0 633.0,444.0 634.0,443.0 634.0,442.0 635.0,441.0 635.0,439.0 636.0,438.0 636.0,437.0 637.0,436.0 637.0,434.0 638.0,433.0 638.0,432.0 639.0,431.0 639.0,429.0 640.0,428.0 640.0,426.0 641.0,425.0 641.0,422.0 642.0,421.0 642.0,418.0 643.0,417.0 643.0,414.0 644.0,413.0 644.0,409.0 645.0,408.0 645.0,402.0 646.0,401.0 646.0,372.0 645.0,371.0 645.0,366.0 644.0,365.0 644.0,360.0 643.0,359.0 643.0,356.0 642.0,355.0 642.0,352.0 641.0,351.0 641.0,349.0 640.0,348.0 640.0,346.0 639.0,345.0 639.0,343.0 638.0,342.0 638.0,340.0 637.0,339.0 637.0,338.0 636.0,337.0 636.0,335.0 635.0,334.0 635.0,333.0 634.0,332.0 634.0,331.0 633.0,330.0 633.0,329.0 632.0,328.0 632.0,327.0 631.0,326.0 631.0,325.0 630.0,324.0 630.0,323.0 629.0,322.0 629.0,321.0 627.0,319.0 627.0,318.0 625.0,316.0 625.0,315.0 623.0,313.0 623.0,312.0 620.0,309.0 620.0,308.0 616.0,304.0 616.0,303.0 606.0,293.0 605.0,293.0 600.0,288.0 599.0,288.0 596.0,285.0 595.0,285.0 593.0,283.0 592.0,283.0 590.0,281.0 589.0,281.0 588.0,280.0 587.0,280.0 585.0,278.0 584.0,278.0 583.0,277.0 582.0,277.0 581.0,276.0 580.0,276.0 579.0,275.0 578.0,275.0 577.0,274.0 576.0,274.0 575.0,273.0 574.0,273.0 573.0,272.0 571.0,272.0 570.0,271.0 568.0,271.0 567.0,270.0 565.0,270.0 564.0,269.0 562.0,269.0 561.0,268.0 559.0,268.0 558.0,267.0 555.0,267.0 554.0,266.0 550.0,266.0 549.0,265.0 545.0,265.0 544.0,264.0 538.0,264.0 537.0,263.0" /></svg>